PathFileType	4	(X/Y/Z)	/home/abdul/Desktop/myosuite/custom_workspace/IK/output/S13_12_3.trc
DataRate	CameraRate	NumFrames	NumMarkers	Units	OrigDataRate	OrigDataStartFrame	OrigNumFrames
200.0	200.0	22	3	mm	200.0	1335	1525
Frame#	Time	V_Shoulder			V_Elbow			V_Wrist		
		X1	Y1	Z1	X2	Y2	Z2	X3	Y3	Z3

1335	6.67	-91.40699554582578	618.4629496315468	333.3267719996815	-237.0544161358112	524.525000476647	20.50385703596743	-255.23085330307205	254.8486655807717	45.26943534703189
1336	6.675	-91.37467568966129	618.4811679381291	333.3266185384817	-237.07194862396352	524.4909328976412	20.532777397988447	-255.22312657103475	254.8507588537239	45.25676499972673
1337	6.68	-91.34230981487997	618.4992223629819	333.3263570639054	-237.08880281035175	524.4577413579989	20.5612677524621	-255.2173203074878	254.85279684396804	45.24232255188821
1338	6.685	-91.30994351635384	618.5170928991084	333.3259809489726	-237.1049791831457	524.4254116127595	20.589290117571803	-255.21335701095694	254.854771277944	45.22613301261461
1339	6.69	-91.27762146609818	618.5347597614483	333.3254841429967	-237.1204796156033	524.3939297828367	20.61680873999573	-255.21115672362708	254.85667461247607	45.208228163634224
1340	6.695	-91.24538737245673	618.5522034411564	333.3248611675517	-237.1353073387089	524.3632823936144	20.643790089609535	-255.2106375004185	254.8585000300821	45.188646143064915
1341	6.7	-91.21328394174729	618.5694047595165	333.3241071110708	-237.14946691009735	524.3334564072238	20.67020284887991	-255.2117158603533	254.86024143229844	45.167431021302264
1342	6.705	-91.18135284238254	618.586344921327	333.3232176221073	-237.16296417971677	524.304439248737	20.696017897271176	-255.21430721934115	254.8618934312047	45.14463237085973
1343	6.71	-91.14963467147591	618.6030055676011	333.3221889012946	-237.17580625266405	524.2762188265303	20.721208290983984	-255.21832630362604	254.8634513393224	45.120304831967424
1344	6.715	-91.1181689239351	618.6193688274157	333.32101769204377	-237.18800144960355	524.2487835470868	20.74574923834024	-255.2236875432453	254.86491115805023	45.09450767571124
1345	6.72	-91.0869939640409	618.6354173687527	333.3197012700182	-237.19955926515667	524.2221223245112	20.769618071121403	-255.230305444962	254.86626956478636	45.067304366461414
1346	6.725	-91.05614699950259	618.6511344481684	333.31823743143235	-237.2104903246211	524.1962245850561	20.792794212158924	-255.23809494423944	254.86752389887758	45.0387621252998
1347	6.73	-91.02566405797602	618.6665039591317	333.3166244802178	-237.22080633935207	524.1710802669481	20.815259139465702	-255.24697173593069	254.8686721465217	45.00895149610797
1348	6.735	-90.9955799660248	618.681510478873	333.31486121410654	-237.23052006110868	524.146679815828	20.836996347186258	-255.25685258345902	254.86971292473902	44.97794591592421
1349	6.74	-90.96592833050018	618.6961393135902	333.31294690968144	-237.2396452356357	524.1230141761112	20.857991303631213	-255.26765560636395	254.870645464517	44.945821291117056
1350	6.745	-90.93674152230903	618.7103765418552	333.3108813064477	-237.24819655572293	524.1000747785849	20.878231406648595	-255.27930054618201	254.87146959321996	44.9126555808561
1351	6.75	-90.90805066253597	618.7242090560749	333.3086645899784	-237.25618961394997	524.0778535245588	20.897705936570826	-255.29170901072217	254.87218571634642	44.87852838928859
1352	6.755	-90.87988561087987	618.7376246018588	333.30629737419105	-237.26364085529622	524.0563427668855	20.91640600696215	-255.30480469688172	254.87279479870517	44.843520567752705
1353	6.76	-90.85227495636116	618.7506118151551	333.3037806828128	-237.27056752976205	524.0355352881694	20.934324513376833	-255.3185135922306	254.87329834507273	44.807713828275695
1354	6.765	-90.82524601025182	618.7631602570185	333.30111593009275	-237.27698764511962	524.0154242764753	20.95145608032397	-255.33276415566752	254.87369838038626	44.77119036951856
1355	6.77	-90.79882480117628	618.7752604458799	333.29830490082264	-237.2829199198814	523.9960032988475	20.967797006620412	-255.34748747752315	254.87399742951735	44.7340325162389
1356	6.775	-90.77303607232768	618.7869038871978	333.29534972972596	-237.28838373654781	523.9772662729449	20.98334520929904	-255.36261741955065	254.87419849666588	44.696322373249686
